<svg id="Calque_2" xmlns="http://www.w3.org/2000/svg" viewBox="0 0 682.1 212.7"><style>.st0{fill:#5b7434}</style><path class="st0" d="M1.4 5.6H45c-8.8 6.3-9.8 14.9-9.8 23.8 0 27.7-.3 55.3.2 83 .3 14.1 4 27.4 16.8 35.8 19.2 12.6 51 4.7 60.8-15.2 2.2-4.5 3.4-9.9 3.4-14.9.3-29.7.4-59.3 0-89-.1-8.5-1-17.3-9.9-23.4h44c-10.8 8-9.6 19.4-9.6 30.3v101c0 4.2-.1 8.4.3 12.5.8 6.9 2.8 13.3 10.2 17.6h-34.7V152c-6 4.1-11.1 8.6-17.1 11.5-22.1 10.8-44.4 10.7-66.1-1.2-12.9-7.1-20.6-18.6-21.7-33.2-1.2-15.2-1-30.6-1.2-45.9-.2-18.3.2-36.7-.1-55-.2-11-1.4-15.1-9.1-22.6zm484.4 159.3c-1 .7-2 1.3-3.5 2.2h49.5c-10.8-5.9-15.9-14.7-20-24.2-4.7-10.9-9-22-13.5-33-13.5-33.5-27-67.1-40.7-100.6-.6-1.5-2.5-3.6-3.9-3.7-11.3-.3-22.5-.2-33.8-.2 7.3 4.9 5.3 11.3 3.5 17.7-.5 1.7-1.3 3.4-1.9 5.1-12.6 31.5-25.1 63.1-38 94.5-6.6 15.9-9.7 34-27.4 44.4h43.3c-9.3-6.5-8.6-11-5.6-19.8 4.3-12.8 9.2-25.4 14-38.1.5-1.3 2.4-2.7 3.7-2.8 19-.2 38-.2 57 0 1.4 0 3.6 1.6 4.2 3 5.8 14.7 11.3 29.6 17 44.4 2 5.2.1 8.4-3.9 11.1zm-70.7-76.5c8.3-21 16.3-41.3 24.3-61.6.4-.1.8-.1 1.3-.2 7.9 20.4 15.9 40.8 24.1 61.8h-49.7zM668.9 35c-15.4-9-30.4-13.9-47-13.6-26.8.5-48.8 17.5-54.5 43.6-6 27.3.1 51.7 20.9 71.2 11.8 11.1 26.2 15.4 42.4 15 17.7-.4 33.5-6.5 50.1-14.9-1.5 3.7-2.5 6.4-3.7 9.2-1.9 4.4-4.2 8.6-5.8 13.2-1.5 4.4-4.5 6.7-8.7 7.8-34.3 9.1-66.8 6.1-96-15.3-14.3-10.5-22.4-25.5-26.2-42.7-5-22.4-3.4-44.3 7.5-64.7C560.5 20 581.1 7 607.4 2.9c19.6-3 39-.8 58.2 4 1.2.3 3.2 1.4 3.3 2.2.1 8.4 0 16.8 0 25.9z"/><path class="st0" d="M303.6 158.2c5.8-4.3 12.3-8 17.3-13.1 20.5-20.6 28.7-45.6 24.4-74.4-3.1-20.5-13-37-29.2-49.7-22.7-18-49-22.4-76.7-17.9-24.1 4-44.3 15.7-58.5 36-11.4 16.3-16.1 34.5-14.3 54.5 2.1 23.5 11.8 43 30.2 57.7 21.6 17.4 46.5 22.9 73.7 18.2 1.9-.3 4.5.4 6 1.6 16.8 13 33.7 25.8 53.1 34.7 11.8 5.4 23.9 7.8 36.6 3.6 5.7-1.9 11.1-4.4 15.9-9.4-29.2 0-59.7-22.8-78.5-41.8zm-14.5-12.4c-23.8 14.1-58.9 10.5-78.3-13.4-11.5-14.1-16.9-30.4-17.3-48.1-.7-29.5 15.4-58 49-64.6 33-6.5 60.2 9.4 72.1 42.4 1.3 3.6 2.4 7.2 3 10.9.9 5.4 1.2 10.9 1.6 14.7-.5 25.7-8.8 45.5-30.1 58.1z"/></svg>