<?xml version="1.0" encoding="utf-8"?>
<!-- Generator: Adobe Illustrator 21.1.0, SVG Export Plug-In . SVG Version: 6.00 Build 0)  -->
<svg version="1.1" id="Calque_2" xmlns="http://www.w3.org/2000/svg" xmlns:xlink="http://www.w3.org/1999/xlink" x="0px" y="0px"
	 viewBox="0 0 35.9 55.8" style="enable-background:new 0 0 35.9 55.8;" xml:space="preserve">
<style type="text/css">
	.st0{fill:#707071;}
</style>
<path class="st0" d="M2.9,55.6c-0.7,0-1.4-0.3-1.9-0.9c-0.9-1.1-0.7-2.6,0.4-3.5L30,27.9L1.3,4.6C0.3,3.7,0.1,2.2,1,1.1
	C1.8,0,3.4-0.1,4.5,0.7l29.3,23.8c1,0.8,1.6,2.1,1.6,3.4c0,1.3-0.6,2.5-1.6,3.4L4.5,55C4,55.4,3.5,55.6,2.9,55.6z M30.7,28.4
	L30.7,28.4L30.7,28.4z"/>
</svg>
