<svg enable-background="new 0 0 350 383" viewBox="0 0 350 383" xmlns="http://www.w3.org/2000/svg"><g fill="#fff"><path d="m18.4 58.8 3.8 1v45.9c-4.7 3-7.9 8.3-7.9 14.3s3.1 11.3 7.9 14.3v1.1c-.6.9-1 2-1.3 3.1l-1.5 5.8-9.4 35.9c-1.5 5.7 2.4 11.5 7.7 11.5h14 14c5.3 0 9.2-5.7 7.7-11.5l-9.4-35.9-1.5-5.8c-.4-1.7-1.2-3.1-2.1-4.2 4.7-3 7.8-8.3 7.8-14.3s-3.1-11.3-7.9-14.3v-41.1l41.9 10.9 7.2 1.9c-5.8 12.6-9.1 26.7-9.1 41.5 0 53.8 42.8 97.5 95.5 97.5s95.5-43.7 95.5-97.5c0-15-3.3-29.2-9.2-41.9l5.7-1.5 64-16.7c12.5-3.3 12.7-19.2.2-22.7l-152.4-35.4c-1.5-.4-2.9-.6-4.4-.5-1.4 0-2.9.1-4.4.5l-152.6 35.4c-12.5 3.5-12.3 19.4.2 22.7z"/><path d="m246.6 241.9-35.2 37.3-35.4 37.5-35.4-37.5-35.3-37.3c-53.3 2.9-95.6 47-95.6 101v5.5c0 19.2 15.5 34.7 34.7 34.7h262.3c19.2 0 34.7-15.5 34.7-34.7v-5.5c.1-53.8-41.8-97.7-94.8-101z"/></g></svg>