<?xml version="1.0" encoding="utf-8"?>
<!-- Generator: Adobe Illustrator 21.1.0, SVG Export Plug-In . SVG Version: 6.00 Build 0)  -->
<svg version="1.1" id="Calque_2" xmlns="http://www.w3.org/2000/svg" xmlns:xlink="http://www.w3.org/1999/xlink" x="0px" y="0px"
	 viewBox="0 0 350 383" style="enable-background:new 0 0 350 383;" xml:space="preserve">
<style type="text/css">
	.st0{fill:#FFFFFF;}
</style>
<g>
	<path class="st0" d="M18.4,58.8l3.8,1v45.9c-4.7,3-7.9,8.3-7.9,14.3s3.1,11.3,7.9,14.3v1.1c-0.6,0.9-1,2-1.3,3.1l-1.5,5.8L10,180.2
		c-1.5,5.7,2.4,11.5,7.7,11.5h14h14c5.3,0,9.2-5.7,7.7-11.5l-9.4-35.9l-1.5-5.8c-0.4-1.7-1.2-3.1-2.1-4.2c4.7-3,7.8-8.3,7.8-14.3
		c0-6-3.1-11.3-7.9-14.3V64.6l41.9,10.9l7.2,1.9c-5.8,12.6-9.1,26.7-9.1,41.5c0,53.8,42.8,97.5,95.5,97.5s95.5-43.7,95.5-97.5
		c0-15-3.3-29.2-9.2-41.9l5.7-1.5l64-16.7c12.5-3.3,12.7-19.2,0.2-22.7L179.6,0.7c-1.5-0.4-2.9-0.6-4.4-0.5c-1.4,0-2.9,0.1-4.4,0.5
		L18.2,36.1C5.7,39.6,5.9,55.5,18.4,58.8z"/>
	<path class="st0" d="M246.6,241.9l-35.2,37.3L176,316.7l-35.4-37.5l-35.3-37.3c-53.3,2.9-95.6,47-95.6,101v5.5
		c0,19.2,15.5,34.7,34.7,34.7h262.3c19.2,0,34.7-15.5,34.7-34.7v-5.5C341.5,289.1,299.6,245.2,246.6,241.9z"/>
</g>
</svg>
