<?xml version="1.0" encoding="utf-8"?>
<!-- Generator: Adobe Illustrator 21.1.0, SVG Export Plug-In . SVG Version: 6.00 Build 0)  -->
<svg version="1.1" id="Calque_2" xmlns="http://www.w3.org/2000/svg" xmlns:xlink="http://www.w3.org/1999/xlink" x="0px" y="0px"
	 viewBox="0 0 682.1 212.7" style="enable-background:new 0 0 682.1 212.7;" xml:space="preserve">
<style type="text/css">
	.st0{fill:#5B7434;}
</style>
<g>
	<g>
		<path class="st0" d="M1.4,5.6c14.6,0,28.6,0,43.6,0c-8.8,6.3-9.8,14.9-9.8,23.8c0,27.7-0.3,55.3,0.2,83c0.3,14.1,4,27.4,16.8,35.8
			c19.2,12.6,51,4.7,60.8-15.2c2.2-4.5,3.4-9.9,3.4-14.9c0.3-29.7,0.4-59.3,0-89c-0.1-8.5-1-17.3-9.9-23.4c15.1,0,29.1,0,44,0
			c-10.8,8-9.6,19.4-9.6,30.3c0,33.7,0,67.3,0,101c0,4.2-0.1,8.4,0.3,12.5c0.8,6.9,2.8,13.3,10.2,17.6c-12,0-23.1,0-34.7,0
			c0-5.1,0-10.1,0-15.1c-6,4.1-11.1,8.6-17.1,11.5c-22.1,10.8-44.4,10.7-66.1-1.2c-12.9-7.1-20.6-18.6-21.7-33.2
			c-1.2-15.2-1-30.6-1.2-45.9c-0.2-18.3,0.2-36.7-0.1-55C10.3,17.2,9.1,13.1,1.4,5.6z"/>
		<path class="st0" d="M485.8,164.9c-1,0.7-2,1.3-3.5,2.2c16.5,0,32.2,0,49.5,0c-10.8-5.9-15.9-14.7-20-24.2c-4.7-10.9-9-22-13.5-33
			c-13.5-33.5-27-67.1-40.7-100.6c-0.6-1.5-2.5-3.6-3.9-3.7c-11.3-0.3-22.5-0.2-33.8-0.2c7.3,4.9,5.3,11.3,3.5,17.7
			c-0.5,1.7-1.3,3.4-1.9,5.1c-12.6,31.5-25.1,63.1-38,94.5c-6.6,15.9-9.7,34-27.4,44.4c15.2,0,29.1,0,43.3,0
			c-9.3-6.5-8.6-11-5.6-19.8c4.3-12.8,9.2-25.4,14-38.1c0.5-1.3,2.4-2.7,3.7-2.8c19-0.2,38-0.2,57,0c1.4,0,3.6,1.6,4.2,3
			c5.8,14.7,11.3,29.6,17,44.4C491.7,159,489.8,162.2,485.8,164.9z M415.1,88.4c8.3-21,16.3-41.3,24.3-61.6c0.4-0.1,0.8-0.1,1.3-0.2
			c7.9,20.4,15.9,40.8,24.1,61.8C447.6,88.4,431.7,88.4,415.1,88.4z"/>
		<path class="st0" d="M668.9,35c-15.4-9-30.4-13.9-47-13.6c-26.8,0.5-48.8,17.5-54.5,43.6c-6,27.3,0.1,51.7,20.9,71.2
			c11.8,11.1,26.2,15.4,42.4,15c17.7-0.4,33.5-6.5,50.1-14.9c-1.5,3.7-2.5,6.4-3.7,9.2c-1.9,4.4-4.2,8.6-5.8,13.2
			c-1.5,4.4-4.5,6.7-8.7,7.8c-34.3,9.1-66.8,6.1-96-15.3c-14.3-10.5-22.4-25.5-26.2-42.7c-5-22.4-3.4-44.3,7.5-64.7
			C560.5,20,581.1,7,607.4,2.9c19.6-3,39-0.8,58.2,4c1.2,0.3,3.2,1.4,3.3,2.2C669,17.5,668.9,25.9,668.9,35z"/>
		<path class="st0" d="M303.6,158.2c5.8-4.3,12.3-8,17.3-13.1c20.5-20.6,28.7-45.6,24.4-74.4c-3.1-20.5-13-37-29.2-49.7
			C293.4,3,267.1-1.4,239.4,3.1c-24.1,4-44.3,15.7-58.5,36c-11.4,16.3-16.1,34.5-14.3,54.5c2.1,23.5,11.8,43,30.2,57.7
			c21.6,17.4,46.5,22.9,73.7,18.2c1.9-0.3,4.5,0.4,6,1.6c16.8,13,33.7,25.8,53.1,34.7c11.8,5.4,23.9,7.8,36.6,3.6
			c5.7-1.9,11.1-4.4,15.9-9.4C352.9,200,322.4,177.2,303.6,158.2z M289.1,145.8c-23.8,14.1-58.9,10.5-78.3-13.4
			c-11.5-14.1-16.9-30.4-17.3-48.1c-0.7-29.5,15.4-58,49-64.6c33-6.5,60.2,9.4,72.1,42.4c1.3,3.6,2.4,7.2,3,10.9
			c0.9,5.4,1.2,10.9,1.6,14.7C318.7,113.4,310.4,133.2,289.1,145.8z"/>
	</g>
</g>
</svg>
